<?xml version="1.0" encoding="UTF-8"?>
<!-- Generator: Adobe Illustrator 25.0.0, SVG Export Plug-In . SVG Version: 6.00 Build 0)  -->
<svg xmlns="http://www.w3.org/2000/svg" xmlns:xlink="http://www.w3.org/1999/xlink" version="1.1" id="Layer_1" x="0px" y="0px" viewBox="0 0 7767.4 2624" style="enable-background:new 0 0 7767.4 2624;" xml:space="preserve">
<style type="text/css">
	.st0{display:none;fill:#FFFFFF;}
</style>
<g>
	<g>
		<path d="M6158.3,1111.6c0,206.8,0,413.5,0,622.7c-80.3,0-157.5,0-237.1,0c0-343.2,0-686.7,0-1034.1c74.5,0,148.4-1.2,222.3,1.3    c11.2,0.4,24.7,16.1,32.2,27.9c119.9,186.4,239,373.4,358.3,560.2c8.3,13,17,25.7,30.8,46.4c0-216.2,0-423.7,0-633.5    c81.1,0,158.3,0,237.8,0c0,343.9,0,687.3,0,1034.3c-75.2,0-149.2,1-223.2-1.2c-10.2-0.3-22.5-15.2-29.6-26.1    c-121.2-188.4-241.8-377.3-362.4-566.1c-7.4-11.5-14.8-23-22.2-34.4C6162.9,1109.7,6160.6,1110.7,6158.3,1111.6z"></path>
		<path d="M3852.4,1736.7c-74.4,0-146.2,1.2-217.9-1.2c-11.6-0.4-26.3-14-33.6-25.3c-122.1-189.3-243.2-379.2-364.5-569    c-6.9-10.8-14.2-21.4-27.8-30.7c0,207.4,0,414.9,0,624.2c-81.6,0-158.8,0-237.8,0c0-344.1,0-686.7,0-1034.7    c59,0,118.6,2.8,177.7-0.9c43.1-2.7,67.9,11.2,91.3,48.8c115.1,185.2,233.7,368.2,351.2,551.9c6.1,9.6,13.1,18.5,24.5,34.5    c0-215.2,0-422,0-631.5c79.7,0,156.9,0,236.9,0C3852.4,1045.5,3852.4,1388.8,3852.4,1736.7z"></path>
		<path d="M2307.4,1754.7c-303.1-1.7-518.8-232.3-517-552.7c1.6-285.5,240-521.4,525.4-519.9c290.8,1.5,520.1,238.3,519.3,536    C2834.2,1526,2607.6,1756.4,2307.4,1754.7z M2045.7,1221.2c3.3,27.2,5,54.8,10.1,81.7c22.9,120.8,100.6,200.8,209.2,216.9    c119.8,17.9,222.9-27.9,272.2-128.7c59-120.6,58.8-244.2-9.5-361c-89.1-152.4-317.1-159.5-419.5-15.8    C2064.4,1076,2046.8,1145.8,2045.7,1221.2z"></path>
		<path d="M1408,1309.8c118.1,141.9,234.1,281.4,355.1,426.8c-103.1,0-198.4,0.8-293.7-1.2c-10.8-0.2-23.4-14.6-31.6-25.2    c-88.5-113.4-176.2-227.4-264.2-341.2c-6.5-8.3-13.3-16.4-26.5-32.6c0,138,0,267.4,0,398.4c-82.8,0-160.1,0-239.5,0    c0-344.2,0-686.7,0-1032.4c10.2-0.8,20.4-2.3,30.7-2.3c113.9-0.2,227.8-1.6,341.7,0.7c41.5,0.8,84,6.3,124,17.3    c126.3,34.6,203.8,131.7,212.1,259.7c9.7,148.3-54.3,264.7-175,317.9C1431.5,1300,1421.8,1304,1408,1309.8z M1147.1,1162    c49.8-6.1,95.2-7.8,138.7-18.1c46.2-11,71.9-46.3,77.3-93.4c5.6-49.2,1.7-97.7-43.8-128.7c-52.5-35.8-112.2-30.8-172.2-29.1    C1147.1,982.3,1147.1,1066.9,1147.1,1162z"></path>
		<path d="M7229.3,1111.7c112.5,0,222.4,0,334.6,0c0,70.6,0,138.4,0,210.4c-110.6,0-221.5,0-334.6,0c0,69.5,0,134.8,0,204    c116.8,0,232.5,0,350.4,0c0,71.4,0,139.1,0,208.7c-196.1,0-391.1,0-589.3,0c0-343.1,0-686.5,0-1032.3c195.6,0,391.4,0,589.4,0    c0,68.2,0,135.8,0,207.3c-117,0-232.6,0-350.5,0C7229.3,977.9,7229.3,1042.1,7229.3,1111.7z"></path>
		<path d="M761.7,701.9c0,69.6,0,137.4,0,208.3c-120.3,0-238.5,0-358.9,0c0,67.3,0,131.5,0,200.2c108.9,0,218.2,0,329.9,0    c0,72.1,0,139.8,0,211.2c-109.8,0-218.3,0-330.9,0c0,139.4,0,275.3,0,413.2c-81.3,0-158.4,0-237.7,0c0-344.4,0-687.7,0-1032.8    C363.9,701.9,562,701.9,761.7,701.9z"></path>
		<path d="M4157.7,1734.9c0-274.6,0-547.4,0-824.2c-83.1,0-162.7,0-244.2,0c0-71.7,0-139.3,0-208.8c241.7,0,482.1,0,725.4,0    c0,67.5,0,135.1,0,206.8c-78.3,0-156.6,0-240.3,0c0,277.6,0,551.2,0,826.2C4315.9,1734.9,4238.6,1734.9,4157.7,1734.9z"></path>
		<path d="M4996.3,1526.8c120.4,0,236,0,353.4,0c0,70.5,0,137.3,0,207c-195.3,0-391,0-589.8,0c0-342.1,0-685.3,0-1031.1    c77.1,0,154.3,0,236.3,0C4996.3,975.8,4996.3,1249.4,4996.3,1526.8z"></path>
		<path d="M5736.8,1735.4c-79.2,0-155.5,0-234.1,0c0-344.5,0-687.7,0-1033.1c77.5,0,154.7,0,234.1,0    C5736.8,1045.9,5736.8,1389.1,5736.8,1735.4z"></path>
		<path d="M404.7,2401.9c29.5-75.4,56.8-145.2,84.2-215.1c13.6-34.6,27.3-69,40.9-103.6c24.7-62.6,24.7-62.6,98.5-54.5    c0,151.2,0,302.8,0,456.1c-18.4,0-35.9,0-56,0c0-116.6,0-232.4,0-355.4c-6.4,12.6-10.7,19.7-13.8,27.2    c-40.1,98.7-79.9,197.6-120.1,296.2c-6.3,15.5-7.6,34.3-33.8,34.6c-25.9,0.3-27.8-17.4-34.3-33.4c-43-106.3-86-212.7-133.3-318.4    c0,115.9,0,231.9,0,349.4c-20,0-37.6,0-57.3,0c0-151.7,0-302.4,0-459c20.4,0,41.9-2.7,62.1,1.2c9.4,1.8,19.9,14.8,24,25.1    c40.7,101.1,80.1,202.6,120,304C391.1,2369.6,396.7,2382.7,404.7,2401.9z"></path>
		<path d="M2154.1,2483.4c-40.5,11.1-65.1,0.1-86.4-36.6c-54.6-94.3-114.2-185.7-171.9-278.2c-6.1-9.8-12.9-19.3-25.5-38    c0,124.1,0,238,0,354c-21.6,0-38.9,0-58.6,0c0-151.6,0-302.2,0-454.6c35.1-10.5,60.1-5.5,81.5,31.3    c54.8,94.2,114.3,185.6,172.1,278.1c6.8,10.8,14.2,21.2,28.7,30.7c0-113.8,0-227.6,0-342.4c23.1,0,40.6,0,60,0    C2154.1,2180.1,2154.1,2330.7,2154.1,2483.4z"></path>
		<path d="M5328.7,2484.2c-64.5,8.6-70.2,4.3-74.8-62.7c-1.4-20.3,0.4-40.8-1.3-61.1c-3.5-42.6-28.5-69.3-70.8-71.7    c-40.2-2.4-80.7-0.5-124.3-0.5c0,66.9,0,130,0,195.7c-20.5,0-37.8,0-58,0c0-150.4,0-301.8,0-461c75.2,3.5,150.4,3,224.5,12    c48.4,5.9,80.6,40.1,90.1,90.5c11,58.2-7,103.9-66.3,135.6c63.1,26.6,68.5,77.4,68.6,132.8    C5316.5,2423.9,5324.4,2454,5328.7,2484.2z M5058.8,2236.1c44.8,0,87.9,3.5,130.1-0.9c46.2-4.8,67.3-33.6,66.7-78.4    c-0.6-45.4-25.3-76.1-70.9-79.9c-41.2-3.4-83-0.7-125.9-0.7C5058.8,2131.3,5058.8,2183.3,5058.8,2236.1z"></path>
		<path d="M6488.4,2027.8c102.2,0,199.9,0,299.8,0c0,15.3,0,29.1,0,46.1c-77.2,0-154.6,0-234.7,0c0,50.4,0,97.6,0,149.9    c67.8,0,136.4,0,206.5,0c0,17.7,0,30.4,0,47.3c-68.1,0-135.7,0-206.3,0c0,57.1,0,110.1,0,166.5c78.3,0,155.7,0,236.1,0    c0,16.9,0,30.4,0,46.4c-98.7,0-197.5,0-301.4,0c0-75.2,0-150.3,0-225.4C6488.4,2183.2,6488.4,2107.8,6488.4,2027.8z"></path>
		<path d="M3298.7,2358.1c28.8,0,46.3,0,64.2,0c25.2,85.3,86.9,94.1,152.8,84.1c34.1-5.2,61.1-22.1,67.3-59.9    c5.7-34.5-10.3-61.8-48-79.2c-18.3-8.4-38.5-12.6-57.3-20.1c-34.3-13.6-71-23.8-101.6-43.3c-70.7-45.1-73.5-130.9-9.4-184.9    c67.9-57.1,196.6-45.6,249.7,24.7c15,19.8,21.7,45.9,35,75.1c-27.5,0-45.8,0-64.2,0c-24.5-75.4-74.5-103.1-146.9-81.3    c-29.9,9-50.4,26.5-54.8,59.2c-4.4,32.9,9.6,57,38.4,70.1c27,12.4,56.9,18.4,83.9,30.9c36.4,16.9,76.2,31.5,105.4,57.5    c53.4,47.6,43.2,129.7-15,171.4c-70.3,50.3-197.9,41.3-255.9-21.9C3323.4,2420.1,3315.1,2390,3298.7,2358.1z"></path>
		<path d="M7283.9,2357.8c18.9,0,36.3,0,53.7,0c18.1,84.9,99.4,102.4,173.3,77.9c27.4-9.1,48.4-30.4,45-58.1    c-2.9-23.4-16.8-49.9-34.2-65.6c-17.4-15.6-45.5-19-68.6-28.5c-36.3-14.9-75.5-25.5-107.8-46.6c-65.6-42.9-68.2-125.8-9.9-178.1    c69.5-62.5,204.1-50.7,257.2,24.5c13.7,19.4,19.5,44.3,31.2,72.1c-26.2,0-43.6,0-61.3,0c-25.7-87.8-80.9-97.2-150.4-81.1    c-30.6,7.1-49.9,27.4-54.1,59.7c-4.3,33.2,11.8,56.4,40.1,69.4c27,12.4,56.8,18.6,84,30.5c33.6,14.7,70.3,27.3,97.8,50.2    c61.6,51.3,51.9,140-15.5,183c-69.6,44.4-184.6,34.4-245.2-21.5C7294.1,2422.3,7280.9,2394.4,7283.9,2357.8z"></path>
		<path d="M4279.3,2483.8c0-135.2,0-269.2,0-407.1c-49.2,0-96.4,0-145.9,0c0-17.7,0-31.5,0-48c117.2,0,233.7,0,352.5,0    c0,14.4,0,28.2,0,45.3c-45.9,0-92.2,0-142.5,0c0,137.7,0,272.4,0,409.9C4321,2483.8,4302.4,2483.8,4279.3,2483.8z"></path>
		<path d="M2219.9,155.9c28.7-9.2,43.6,1.4,57.2,24.4c37.1,62.8,76.7,124.2,115.4,186.1c4.8,7.6,10.3,14.7,21.3,30.2    c0-86.6,0-163.5,0-242c15.2,0,26.8,0,40.8,0c0,104,0,207.5,0,311.2c-29.2,11.6-45.7,0.2-60.7-25.3c-41.2-69.9-85-138.2-133.9-206    c0,76.6,0,153.2,0,232.8c-14.8,1-26,1.8-40,2.7C2219.9,364.1,2219.9,260.6,2219.9,155.9z"></path>
		<path d="M720.5,468.7c-13.2,0-23.9,0-38.7,0c0-43.5,0-87.1,0-133.8c-53.4,0-102.8,0-156.3,0c0,42.9,0,86.6,0,132.9    c-15,0.7-26.3,1.3-39.9,1.9c0-106,0-209.6,0-315c12.5,0,23.7,0,38,0c0,46.6,0,91.7,0,139.4c52.3,0,101.8,0,155.6,0    c0-45.6,0-91.6,0-139.3c15.7,0,27.1,0,41.3,0C720.5,258.2,720.5,361.6,720.5,468.7z"></path>
		<path d="M2568.7,154c68.1,0,133.7,0,199.1,0c7.5,32.8,7.5,33.3-22.6,33.6c-44.1,0.5-88.2,0.1-134.6,0.1c0,34.5,0,66.1,0,101.2    c46.6,0,92.7,0,138.7,0c9.6,28.4,0.8,37.1-25.3,36c-36.9-1.6-73.8-0.4-113.3-0.4c0,36.7,0,70.8,0,108.9c52.6,0,105.9,0,161.8,0    c0.6,13.7,1.1,23.4,1.6,34.8c-69.4,0-136.1,0-205.4,0C2568.7,364.4,2568.7,260.9,2568.7,154z"></path>
		<path d="M2771.8,2484.7c-19.4,0-37.9,0-58.5,0c0-152.1,0-302.4,0-455.7c18.5,0,37,0,58.5,0    C2771.8,2179.4,2771.8,2331.5,2771.8,2484.7z"></path>
		<path d="M1464.3,340.7c0,45.1,0,85.2,0,127.1c-15.1,0-26.5,0-40,0c0-103.7,0-207.2,0-313.5c48.1,0,95.8-3.4,142.8,0.9    c52.9,4.8,83.3,44.4,81.6,95.9c-1.7,51.6-34.7,85.8-88.7,89.2C1530.3,342.2,1500.5,340.7,1464.3,340.7z M1465.9,306    c33.1,0,63,2.4,92.3-0.6c32.1-3.3,49.1-27.4,47.2-60.9c-1.8-31.4-17.2-53-49.7-55.5c-29.3-2.3-58.9-0.5-89.9-0.5    C1465.9,228.8,1465.9,265.3,1465.9,306z"></path>
		<path d="M1247.6,2485.2c-18.9,0-36.4,0-56.6,0c0-152.4,0-303.6,0-457c18.5,0,35.9,0,56.6,0    C1247.6,2178.7,1247.6,2329.8,1247.6,2485.2z"></path>
		<path d="M5869.3,2027.1c21.2,0,37.8,0,57.3,0c0,152.3,0,303.5,0,457.1c-18.6,0-36.9,0-57.3,0    C5869.3,2332.2,5869.3,2181,5869.3,2027.1z"></path>
		<path d="M1742.7,153.2c46,0,89.1-1.7,132.1,0.4c56.8,2.8,93,40.8,93.1,93.8c0,55-36.8,91.2-96.6,93.5c-28.4,1.1-56.9,0.2-88.5,0.2    c0,44,0,84.2,0,126.4c-14.6,0-26,0-40,0C1742.7,364.4,1742.7,260.9,1742.7,153.2z M1783.7,305.2c33.4,0,65.5,2.7,96.8-0.8    c30.7-3.4,43.6-27.3,43.8-56.4c0.2-29.1-12.8-53.6-42.8-57.5c-32.1-4.2-65.2-1-97.8-1C1783.7,230.2,1783.7,266.9,1783.7,305.2z"></path>
		<path d="M206,340.7c0,46,0,85.4,0,127.4c-13.3,0.6-24.6,1.1-38.9,1.7c0-105.4,0-208.8,0-314.9c48.9,0,97.9-4,145.9,1.1    c52.2,5.5,82.6,48,79,98.5c-3.5,49.3-37,82.6-89.2,85.9C272.2,342.2,241.3,340.7,206,340.7z M207.9,305.4    c34.5,0,65.7,2.8,96.1-0.8c32.5-3.8,45.5-28.6,44.6-59.2c-0.8-29.1-15-52.2-45.3-55.5c-31.2-3.4-63.1-0.8-95.5-0.8    C207.9,229.5,207.9,266.1,207.9,305.4z"></path>
		<path d="M1031.2,434.9c45.6,0,84.9-0.3,124.2,0.1c27,0.3,27,0.8,25.3,32.7c-61.6,0-123.4,0-187.7,0c0-103.6,0-207.1,0-312.7    c11.5,0,22.9,0,38.1,0C1031.2,246.4,1031.2,338,1031.2,434.9z"></path>
		<path d="M2100.4,155.3c0,104.3,0,207.9,0,313c-13.3,0-24.9,0-39,0c0-104.1,0-207.4,0-313C2074,155.3,2086.4,155.3,2100.4,155.3z"></path>
		<path d="M835.3,154.5c13.9,0,25.4,0,39.2,0c0,104.2,0,207.6,0,313c-12.9,0-25.1,0-39.2,0C835.3,363.5,835.3,261.2,835.3,154.5z"></path>
		<path d="M1308.3,467.9c-16.4,0-27.9,0-43.2,0c0-93.4,0-185.1,0-276.8c0-11.7,0-23.3,0-36.5c15.5,0,26.9,0,43.2,0    c0,52.5,0,104.7,0,156.9C1308.3,362.7,1308.3,413.9,1308.3,467.9z"></path>
		<path class="st0" d="M2045.7,1221.2c1.1-75.4,18.7-145.2,62.5-206.8c102.4-143.8,330.5-136.6,419.5,15.8    c68.3,116.8,68.5,240.4,9.5,361c-49.4,100.8-152.4,146.6-272.2,128.7c-108.6-16.2-186.3-96.2-209.2-216.9    C2050.7,1276,2049,1248.5,2045.7,1221.2z"></path>
		<path class="st0" d="M1147.1,1162c0-95.1,0-179.8,0-269.2c59.9-1.7,119.7-6.7,172.2,29.1c45.5,31.1,49.5,79.5,43.8,128.7    c-5.4,47.1-31.2,82.4-77.3,93.4C1242.3,1154.3,1196.8,1155.9,1147.1,1162z"></path>
		<path class="st0" d="M5058.8,2236.1c0-52.7,0-104.8,0-159.9c42.9,0,84.6-2.7,125.9,0.7c45.6,3.7,70.3,34.4,70.9,79.9    c0.6,44.9-20.5,73.6-66.7,78.4C5146.7,2239.5,5103.7,2236.1,5058.8,2236.1z"></path>
		<path class="st0" d="M1465.9,306c0-40.7,0-77.3,0-117.6c31,0,60.6-1.8,89.9,0.5c32.4,2.6,47.9,24.2,49.7,55.5    c1.9,33.5-15.1,57.7-47.2,60.9C1528.8,308.4,1498.9,306,1465.9,306z"></path>
		<path class="st0" d="M1783.7,305.2c0-38.3,0-74.9,0-115.7c32.5,0,65.6-3.3,97.8,1c30,3.9,43,28.4,42.8,57.5    c-0.2,29.1-13.1,52.9-43.8,56.4C1849.2,307.9,1817.2,305.2,1783.7,305.2z"></path>
		<path class="st0" d="M207.9,305.4c0-39.3,0-75.8,0-116.3c32.3,0,64.2-2.6,95.5,0.8c30.3,3.3,44.5,26.4,45.3,55.5    c0.9,30.6-12.1,55.5-44.6,59.2C273.6,308.1,242.4,305.4,207.9,305.4z"></path>
	</g>
</g>
</svg>
